<svg width="24" height="24" viewBox="0 0 24 24" fill="none" xmlns="http://www.w3.org/2000/svg">
<path d="M16.7959 3.75002C18.1199 3.75002 19.3639 4.26602 20.2999 5.20102C21.2281 6.13093 21.7494 7.39113 21.7494 8.70502C21.7494 10.0189 21.2281 11.2791 20.2999 12.209L12.0019 20.508L3.70291 12.209C2.77502 11.2791 2.25391 10.0192 2.25391 8.70552C2.25391 7.39188 2.77502 6.13189 3.70291 5.20202C4.16194 4.74032 4.708 4.37425 5.30946 4.12501C5.91093 3.87578 6.55585 3.74832 7.20691 3.75002C8.53091 3.75002 9.77491 4.26602 10.7109 5.20102L11.4709 5.96102L12.0019 6.49202L12.5319 5.96102L13.2919 5.20102C13.7511 4.73963 14.2972 4.37384 14.8987 4.12478C15.5001 3.87573 16.1449 3.74835 16.7959 3.75002Z" stroke="#111111" stroke-width="1.5"/>
</svg>
